<svg width="160" height="25" viewBox="0 0 160 25" fill="none" xmlns="http://www.w3.org/2000/svg">
<path d="M7.43936 20.2028L3.69981 21.449C3.5442 21.5009 3.39616 21.3529 3.44803 21.1973L4.69638 17.453C4.71717 17.3906 4.70776 17.3245 4.66999 17.2707C4.15841 16.5417 0.64708 11.1157 5.66793 6.09579C11.0632 0.701557 16.6931 3.51594 19.0389 5.86126C21.3847 8.20658 24.4342 13.6008 18.8043 19.2296C13.5765 24.4563 8.34876 20.7851 7.62866 20.234C7.57392 20.1921 7.50476 20.181 7.43936 20.2028Z" fill="white"/>
<path fill-rule="evenodd" clip-rule="evenodd" d="M7.23301 22.3797L4.33215 23.3464C2.6139 23.9191 0.97727 22.2847 1.55071 20.5647L2.53195 17.6216C2.04142 16.7579 1.38128 15.3384 1.11684 13.5917C0.719161 10.9651 1.24182 7.69288 4.25386 4.68143C7.37598 1.55992 10.7484 0.68464 13.7661 1.09437C16.6686 1.48846 19.0453 3.03949 20.453 4.4469C21.8171 5.8108 23.455 8.11581 23.8903 11.0174C24.345 14.0479 23.4392 17.4238 20.2184 20.6439C17.1241 23.7376 13.8536 24.3031 11.2052 23.8726C9.47658 23.5915 8.0878 22.9021 7.23301 22.3797ZM4.66999 17.2707C4.70777 17.3245 4.71718 17.3906 4.69638 17.453L3.44804 21.1973C3.39617 21.3529 3.54421 21.5009 3.69981 21.449L7.43937 20.2028C7.50476 20.181 7.57393 20.1921 7.62866 20.234C8.34877 20.7851 13.5765 24.4563 18.8043 19.2296C24.4342 13.6008 21.3847 8.20657 19.0389 5.86125C16.6931 3.51593 11.0632 0.701547 5.66793 6.09578C0.647085 11.1156 4.15841 16.5417 4.66999 17.2707Z" fill="#28303D"/>
<path d="M19 11.8515C19 17.5242 15.8401 18 13.263 18C10.6858 18 6 16.3455 6 10.9091C6 5.47273 9.74862 5 12.0915 5C14.4344 5 19 6.17876 19 11.8515Z" fill="#1073E7"/>
<path d="M12.8223 10.9415L13.3722 9.18852C13.4928 8.80428 13.2876 8.39354 12.908 8.25909C12.5084 8.11755 12.0711 8.33596 11.9442 8.7405L11.1752 11.1915C11.067 11.5365 11.1534 11.913 11.4012 12.1762L13.5597 14.4697C13.8303 14.7572 14.2873 14.7572 14.5579 14.4697C14.8063 14.2058 14.8063 13.7942 14.5579 13.5303L13.0482 11.9262C12.8004 11.663 12.714 11.2865 12.8223 10.9415Z" fill="white"/>
<path d="M37.98 19.16C37.58 19.4533 37.02 19.7 36.3 19.9C35.5933 20.0867 34.6733 20.18 33.54 20.18C32.42 20.18 31.3533 20.0867 30.34 19.9C29.3267 19.7133 28.6 19.5067 28.16 19.28C27.72 19.0533 27.5 18.8333 27.5 18.62C27.5 17.8733 27.6067 17.1 27.82 16.3C28.0333 15.4867 28.2867 15.08 28.58 15.08C28.6333 15.08 29.1867 15.26 30.24 15.62C31.2933 15.98 32.0867 16.16 32.62 16.16C33.1533 16.16 33.5 16.1067 33.66 16C33.82 15.88 33.9 15.7133 33.9 15.5C33.9 15.2867 33.7533 15.1 33.46 14.94C33.1667 14.7667 32.8 14.62 32.36 14.5C31.92 14.3667 31.44 14.18 30.92 13.94C30.4133 13.7 29.94 13.4333 29.5 13.14C29.06 12.8467 28.6933 12.4333 28.4 11.9C28.1067 11.3533 27.96 10.7333 27.96 10.04C27.96 7.08 29.7267 5.6 33.26 5.6C34.58 5.6 35.72 5.68667 36.68 5.86C37.64 6.02 38.3133 6.20667 38.7 6.42C39.1 6.62 39.3 6.82 39.3 7.02C39.3 7.71333 39.1333 8.46 38.8 9.26C38.48 10.06 38.1667 10.46 37.86 10.46C37.8067 10.46 37.6333 10.4 37.34 10.28C36.46 9.89333 35.7267 9.7 35.14 9.7C34.5667 9.7 34.1733 9.75333 33.96 9.86C33.76 9.96667 33.66 10.1333 33.66 10.36C33.66 10.5733 33.8067 10.7533 34.1 10.9C34.3933 11.0333 34.7533 11.16 35.18 11.28C35.62 11.3867 36.0933 11.56 36.6 11.8C37.12 12.0267 37.6 12.3 38.04 12.62C38.48 12.9267 38.8467 13.3667 39.14 13.94C39.4333 14.5133 39.58 15.18 39.58 15.94C39.58 16.74 39.3733 17.4667 38.96 18.12C38.7067 18.52 38.38 18.8667 37.98 19.16ZM44.8059 20.18C43.3126 20.18 42.2659 19.7933 41.6659 19.02C41.0793 18.2467 40.7859 16.9 40.7859 14.98V9.54C40.7859 9.27333 41.1793 9.02 41.9659 8.78C42.7526 8.52667 43.5793 8.4 44.4459 8.4C45.6059 8.4 46.1859 8.7 46.1859 9.3V14.38C46.1859 15.3933 46.2259 16.1333 46.3059 16.6C46.3859 17.0533 46.5859 17.28 46.9059 17.28C47.3326 17.28 47.5459 17.1 47.5459 16.74V9.54C47.5459 9.26 47.9593 9 48.7859 8.76C49.6126 8.52 50.5126 8.4 51.4859 8.4C52.4593 8.4 52.9459 8.66 52.9459 9.18V19.48C52.9459 19.6667 52.5259 19.8 51.6859 19.88C50.8459 19.96 50.0193 20 49.2059 20C48.3926 20 47.9793 19.8933 47.9659 19.68L47.7659 18.38H47.6059C47.4859 18.86 47.2459 19.2533 46.8859 19.56C46.6993 19.72 46.4193 19.8667 46.0459 20C45.6859 20.12 45.2726 20.18 44.8059 20.18ZM59.7406 5.32V19.52C59.7406 19.6667 59.3606 19.7867 58.6006 19.88C57.8406 19.96 57.054 20 56.2406 20C55.4406 20 54.9206 19.9667 54.6806 19.9C54.454 19.82 54.3406 19.6933 54.3406 19.52V5.68C54.3406 5.38667 54.714 5.1 55.4606 4.82C56.2206 4.54 57.034 4.4 57.9006 4.4C59.1273 4.4 59.7406 4.70667 59.7406 5.32ZM68.9975 19.82C68.7575 20.0467 68.2108 20.16 67.3575 20.16C66.5042 20.16 65.7975 20.1067 65.2375 20C64.6775 19.88 64.1442 19.6533 63.6375 19.32C62.6642 18.6667 62.1775 17.3067 62.1775 15.24V12.12H61.1775C61.0308 12.12 60.9042 11.9667 60.7975 11.66C60.6908 11.3533 60.6375 10.9333 60.6375 10.4C60.6375 9.86667 60.7175 9.4 60.8775 9C61.0508 8.58667 61.2708 8.38 61.5375 8.38H62.1775V5.96C62.1775 5.54667 62.5775 5.21333 63.3775 4.96C64.1908 4.70667 64.9842 4.58 65.7575 4.58C66.9708 4.58 67.5775 4.88 67.5775 5.48V8.38H69.0575C69.4042 8.38 69.5775 8.88 69.5775 9.88C69.5775 10.5333 69.4975 11.0733 69.3375 11.5C69.1908 11.9133 68.9975 12.12 68.7575 12.12H67.5775V15.78C67.5775 16.14 67.7308 16.4 68.0375 16.56C68.3442 16.7067 68.6108 16.78 68.8375 16.78C69.0775 16.78 69.2242 16.8933 69.2775 17.12C69.3308 17.3467 69.3575 17.6867 69.3575 18.14C69.3575 19.0333 69.2375 19.5933 68.9975 19.82ZM76.0459 15.48C76.0459 16.3467 76.4593 16.78 77.2859 16.78C77.7659 16.78 78.3926 16.62 79.1659 16.3C79.9393 15.9667 80.3459 15.8 80.3859 15.8C80.6393 15.8 80.9726 16.18 81.3859 16.94C81.7993 17.7 82.0059 18.26 82.0059 18.62C82.0059 19.14 81.4726 19.5333 80.4059 19.8C79.3393 20.0667 78.2926 20.2 77.2659 20.2C76.2526 20.2 75.3993 20.12 74.7059 19.96C74.0259 19.8 73.4659 19.6 73.0259 19.36C72.5993 19.1067 72.2193 18.8 71.8859 18.44C71.5659 18.08 71.3259 17.74 71.1659 17.42C71.0059 17.0867 70.8793 16.72 70.7859 16.32C70.6526 15.7333 70.5859 15.1267 70.5859 14.5C70.5859 12.0733 71.2193 10.4 72.4859 9.48C73.1126 9.01333 73.8126 8.68667 74.5859 8.5C75.3593 8.31333 76.2726 8.22 77.3259 8.22C80.6993 8.22 82.3859 9.39333 82.3859 11.74C82.3859 14.2333 80.4926 15.48 76.7059 15.48H76.0459ZM76.0059 12.56V13.88C76.3926 13.88 76.7059 13.7267 76.9459 13.42C77.1993 13.1133 77.3259 12.74 77.3259 12.3C77.3259 11.5 77.1193 11.1 76.7059 11.1C76.2393 11.1 76.0059 11.5867 76.0059 12.56ZM88.9789 13.68V19.52C88.9789 19.6667 88.5989 19.7867 87.8389 19.88C87.0922 19.96 86.3122 20 85.4989 20C84.6989 20 84.1789 19.9667 83.9389 19.9C83.6989 19.82 83.5789 19.6933 83.5789 19.52V9.66C83.5789 9.40667 83.9456 9.13333 84.6789 8.84C85.4256 8.54667 86.2322 8.4 87.0989 8.4C87.9789 8.4 88.4722 8.64 88.5789 9.12L88.7789 10.04H88.9189C89.1056 9.53333 89.5522 9.10667 90.2589 8.76C90.9656 8.4 91.6722 8.22 92.3789 8.22C93.0856 8.22 93.5789 8.33333 93.8589 8.56C94.1522 8.78667 94.2989 9.08 94.2989 9.44C94.2989 9.78667 94.2722 10.2333 94.2189 10.78C94.1656 11.3267 94.0322 11.92 93.8189 12.56C93.6189 13.2 93.3522 13.52 93.0189 13.52C92.8856 13.52 92.4656 13.42 91.7589 13.22C91.0522 13.02 90.4656 12.92 89.9989 12.92C89.5456 12.92 89.2589 12.9867 89.1389 13.12C89.0322 13.2533 88.9789 13.44 88.9789 13.68ZM95.2177 6C95.2043 5.85333 95.5843 5.74 96.3577 5.66C97.131 5.56667 98.0377 5.52 99.0777 5.52C100.118 5.52 100.638 5.67333 100.638 5.98C100.638 6.36667 100.518 9.58 100.278 15.62C100.264 15.9533 100.024 16.2533 99.5577 16.52C99.091 16.7867 98.431 16.92 97.5777 16.92C96.4177 16.92 95.811 16.6067 95.7577 15.98L95.2177 6ZM100.418 19.82C100.418 20.5 100.198 20.9667 99.7577 21.22C99.331 21.4867 98.7243 21.62 97.9377 21.62C97.1643 21.62 96.571 21.5 96.1577 21.26C95.7443 21.0333 95.5377 20.5533 95.5377 19.82C95.5377 18.62 96.351 18.02 97.9777 18.02C99.6043 18.02 100.418 18.62 100.418 19.82Z" fill="#28303D"/>
<path d="M108.704 9.454C109.544 9.454 110.211 9.79467 110.706 10.476C111.201 11.148 111.448 12.0907 111.448 13.304C111.448 14.0693 111.331 14.746 111.098 15.334C110.865 15.9127 110.529 16.3653 110.09 16.692C109.651 17.0093 109.138 17.168 108.55 17.168C107.775 17.168 107.122 16.8413 106.59 16.188L106.464 17H105.33V6.654L106.618 6.5V10.546C107.15 9.818 107.845 9.454 108.704 9.454ZM108.242 16.146C108.811 16.146 109.255 15.9173 109.572 15.46C109.899 14.9933 110.062 14.2747 110.062 13.304C110.062 12.3053 109.913 11.5867 109.614 11.148C109.315 10.7 108.891 10.476 108.34 10.476C107.687 10.476 107.113 10.8587 106.618 11.624V15.152C106.814 15.46 107.052 15.7027 107.332 15.88C107.621 16.0573 107.925 16.146 108.242 16.146ZM119.131 17H118.025L117.927 15.852C117.647 16.3093 117.325 16.6453 116.961 16.86C116.597 17.0653 116.153 17.168 115.631 17.168C114.987 17.168 114.483 16.972 114.119 16.58C113.755 16.188 113.573 15.6327 113.573 14.914V9.622H114.861V14.774C114.861 15.278 114.949 15.6373 115.127 15.852C115.304 16.0573 115.593 16.16 115.995 16.16C116.713 16.16 117.329 15.7353 117.843 14.886V9.622H119.131V17ZM123.793 9.454C124.297 9.454 124.75 9.524 125.151 9.664C125.552 9.804 125.935 10.014 126.299 10.294L125.753 11.106C125.417 10.8913 125.095 10.7327 124.787 10.63C124.488 10.5273 124.171 10.476 123.835 10.476C123.415 10.476 123.084 10.5647 122.841 10.742C122.598 10.91 122.477 11.1433 122.477 11.442C122.477 11.7407 122.589 11.974 122.813 12.142C123.046 12.31 123.462 12.4733 124.059 12.632C124.88 12.8373 125.492 13.1173 125.893 13.472C126.304 13.8267 126.509 14.312 126.509 14.928C126.509 15.656 126.224 16.2113 125.655 16.594C125.095 16.9767 124.409 17.168 123.597 17.168C122.477 17.168 121.548 16.846 120.811 16.202L121.497 15.418C122.122 15.894 122.813 16.132 123.569 16.132C124.054 16.132 124.437 16.034 124.717 15.838C125.006 15.6327 125.151 15.3573 125.151 15.012C125.151 14.76 125.1 14.5593 124.997 14.41C124.894 14.2513 124.717 14.116 124.465 14.004C124.213 13.8827 123.844 13.7567 123.359 13.626C122.575 13.4207 122.006 13.1453 121.651 12.8C121.306 12.4547 121.133 12.016 121.133 11.484C121.133 11.1013 121.245 10.756 121.469 10.448C121.702 10.1307 122.02 9.888 122.421 9.72C122.832 9.54267 123.289 9.454 123.793 9.454ZM129.614 9.622V17H128.326V9.622H129.614ZM128.956 6.08C129.227 6.08 129.446 6.164 129.614 6.332C129.782 6.5 129.866 6.71 129.866 6.962C129.866 7.214 129.782 7.424 129.614 7.592C129.446 7.75067 129.227 7.83 128.956 7.83C128.695 7.83 128.48 7.75067 128.312 7.592C128.144 7.424 128.06 7.214 128.06 6.962C128.06 6.71 128.144 6.5 128.312 6.332C128.48 6.164 128.695 6.08 128.956 6.08ZM135.749 9.454C136.421 9.454 136.944 9.65467 137.317 10.056C137.7 10.4573 137.891 11.008 137.891 11.708V17H136.603V11.89C136.603 11.3673 136.505 10.9987 136.309 10.784C136.113 10.5693 135.824 10.462 135.441 10.462C135.049 10.462 134.704 10.574 134.405 10.798C134.107 11.022 133.827 11.344 133.565 11.764V17H132.277V9.622H133.383L133.495 10.714C133.757 10.322 134.079 10.014 134.461 9.79C134.853 9.566 135.283 9.454 135.749 9.454ZM146.052 13.094C146.052 13.3087 146.043 13.528 146.024 13.752H141.32C141.376 14.564 141.582 15.1613 141.936 15.544C142.291 15.9267 142.748 16.118 143.308 16.118C143.663 16.118 143.99 16.0667 144.288 15.964C144.587 15.8613 144.9 15.698 145.226 15.474L145.786 16.244C145.002 16.86 144.144 17.168 143.21 17.168C142.184 17.168 141.381 16.832 140.802 16.16C140.233 15.488 139.948 14.564 139.948 13.388C139.948 12.6227 140.07 11.946 140.312 11.358C140.564 10.7607 140.919 10.294 141.376 9.958C141.843 9.622 142.389 9.454 143.014 9.454C143.994 9.454 144.746 9.776 145.268 10.42C145.791 11.064 146.052 11.9553 146.052 13.094ZM144.778 12.716C144.778 11.988 144.634 11.4327 144.344 11.05C144.055 10.6673 143.621 10.476 143.042 10.476C141.988 10.476 141.414 11.2507 141.32 12.8H144.778V12.716ZM150.111 9.454C150.615 9.454 151.068 9.524 151.469 9.664C151.871 9.804 152.253 10.014 152.617 10.294L152.071 11.106C151.735 10.8913 151.413 10.7327 151.105 10.63C150.807 10.5273 150.489 10.476 150.153 10.476C149.733 10.476 149.402 10.5647 149.159 10.742C148.917 10.91 148.795 11.1433 148.795 11.442C148.795 11.7407 148.907 11.974 149.131 12.142C149.365 12.31 149.78 12.4733 150.377 12.632C151.199 12.8373 151.81 13.1173 152.211 13.472C152.622 13.8267 152.827 14.312 152.827 14.928C152.827 15.656 152.543 16.2113 151.973 16.594C151.413 16.9767 150.727 17.168 149.915 17.168C148.795 17.168 147.867 16.846 147.129 16.202L147.815 15.418C148.441 15.894 149.131 16.132 149.887 16.132C150.373 16.132 150.755 16.034 151.035 15.838C151.325 15.6327 151.469 15.3573 151.469 15.012C151.469 14.76 151.418 14.5593 151.315 14.41C151.213 14.2513 151.035 14.116 150.783 14.004C150.531 13.8827 150.163 13.7567 149.677 13.626C148.893 13.4207 148.324 13.1453 147.969 12.8C147.624 12.4547 147.451 12.016 147.451 11.484C147.451 11.1013 147.563 10.756 147.787 10.448C148.021 10.1307 148.338 9.888 148.739 9.72C149.15 9.54267 149.607 9.454 150.111 9.454ZM156.51 9.454C157.014 9.454 157.466 9.524 157.868 9.664C158.269 9.804 158.652 10.014 159.016 10.294L158.47 11.106C158.134 10.8913 157.812 10.7327 157.504 10.63C157.205 10.5273 156.888 10.476 156.552 10.476C156.132 10.476 155.8 10.5647 155.558 10.742C155.315 10.91 155.194 11.1433 155.194 11.442C155.194 11.7407 155.306 11.974 155.53 12.142C155.763 12.31 156.178 12.4733 156.776 12.632C157.597 12.8373 158.208 13.1173 158.61 13.472C159.02 13.8267 159.226 14.312 159.226 14.928C159.226 15.656 158.941 16.2113 158.372 16.594C157.812 16.9767 157.126 17.168 156.314 17.168C155.194 17.168 154.265 16.846 153.528 16.202L154.214 15.418C154.839 15.894 155.53 16.132 156.286 16.132C156.771 16.132 157.154 16.034 157.434 15.838C157.723 15.6327 157.868 15.3573 157.868 15.012C157.868 14.76 157.816 14.5593 157.714 14.41C157.611 14.2513 157.434 14.116 157.182 14.004C156.93 13.8827 156.561 13.7567 156.076 13.626C155.292 13.4207 154.722 13.1453 154.368 12.8C154.022 12.4547 153.85 12.016 153.85 11.484C153.85 11.1013 153.962 10.756 154.186 10.448C154.419 10.1307 154.736 9.888 155.138 9.72C155.548 9.54267 156.006 9.454 156.51 9.454Z" fill="#28303D"/>
</svg>
